{"title":"Bombshell.Bloodbath.2014.BRRip.x264-MenaceIISociety","uid":12274835,"size":529043296,"categoryP":"video","categoryS":"movies","magnet":"?xt=urn:btih:c42424e75f5df9001f816efc3cf0b2c53355129a&amp;dn=Bombshell.Bloodbath.2014.BRRip.x264-MenaceIISociety&amp;tr=udp%3A%2F%2Ftracker.openbittorrent.com%3A80&amp;tr=udp%3A%2F%2Fopen.demonii.com%3A1337&amp;tr=udp%3A%2F%2Ftracker.coppersurfer.tk%3A6969&amp;tr=udp%3A%2F%2Fexodus.desync.com%3A6969","seeders":2,"leechers":1,"uploader":"xxxlavalxxx","files":4,"time":1440339124,"description":" &lt;a href=&quot;http://extraimago.com/image/L0T&quot; rel=&quot;nofollow&quot; target=&quot;_NEW&quot;&gt;http://extraimago.com/image/L0T&lt;/a&gt;\n &lt;a href=&quot;\nhttp://www.imdb.com/title/tt3139212/&quot; rel=&quot;nofollow&quot; target=&quot;_NEW&quot;&gt;\nhttp://www.imdb.com/title/tt3139212/&lt;/a&gt;\n\n\nWhen exposed to her father's experimental attempts to reanimate his wife, Cara (Alex Elliott), must find a way to protect her family's secret while slowly slipping into the world of the living dead.\n\nDirector: Brett Mullen\nWriters: Brett Mullen, Sky Tilley\nStars: Alex Elliott, Ed Ricker, Rob Springer\nGenres: Horror\nCountry: USA\nLanguage: English\n\n\nBombshell.Bloodbath.2014.BRRip.x264-MenaceIISociety\n &lt;a href=&quot;\nhttp://www.imdb.com/title/tt3139212/&quot; rel=&quot;nofollow&quot; target=&quot;_NEW&quot;&gt;\nhttp://www.imdb.com/title/tt3139212/&lt;/a&gt;\nSource: ENCOUNTERS [THANKS]\n\nGeneral\nComplete name: Bombshell.Bloodbath.2014.BRRip.x264-MenaceIISociety.mp4\nFormat: MPEG-4\nFormat profile: Base Media\nCodec ID: isom\nFile size: 488 MiB\nDuration: 1h 19mn\nOverall bit rate mode: Variable\nOverall bit rate: 855 Kbps\nEncoded date: UTC 2015-08-23 10:49:49\nTagged date: UTC 2015-08-23 10:49:49\n\nVideo\nID: 1\nFormat: AVC\nFormat/Info: Advanced Video Codec\nFormat profile: &lt;a class=&quot;__cf_email__&quot; href=&quot;/cdn-cgi/l/email-protection&quot; data-cfemail=&quot;84ccede3ecc4c8b0aab5&quot;&gt;[email&amp;#160;protected]&lt;/a&gt;&lt;script data-cfhash='f9e31' type=&quot;text/javascript&quot;&gt;\n/* &lt;![CDATA[ */!function(){try{var t=&quot;currentScript&quot;in document?document.currentScript:function(){for(var t=document.getElementsByTagName(&quot;script&quot;),e=t.length;e--;)if(t[e].getAttribute(&quot;data-cfhash&quot;))return t[e]}();if(t&amp;&amp;t.previousSibling){var e,r,n,i,c=t.previousSibling,a=c.getAttribute(&quot;data-cfemail&quot;);if(a){for(e=&quot;&quot;,r=parseInt(a.substr(0,2),16),n=2;a.length-n;n+=2)i=parseInt(a.substr(n,2),16)^r,e+=String.fromCharCode(i);e=document.createTextNode(e),c.parentNode.replaceChild(e,c)}t.parentNode.removeChild(t);}}catch(u){}}()/* ]]&gt; */&lt;/script&gt;\nFormat settings, CABAC: Yes\nFormat settings, ReFrames: 3 frames\nCodec ID: avc1\nCodec ID/Info: Advanced Video Coding\nDuration: 1h 19mn\nBit rate mode: Variable\nBit rate: 727 Kbps\nMaximum bit rate: 40.0 Mbps\nWidth: 720 pixels\nHeight: 304 pixels\nDisplay aspect ratio: 2.35:1\nFrame rate mode: Constant\nFrame rate: 23.976 fps\nColor space: YUV\nChroma subsampling: 4:2:0\nBit depth: 8 bits\nScan type: Progressive\nBits/(Pixel*Frame): 0.139\nStream size: 415 MiB (85%)\nWriting library: x264 core 148 r2579 73ae2d1\n\nAudio\nID: 2\nFormat: AAC\nFormat/Info: Advanced Audio Codec\nFormat profile: LC\nCodec ID: 40\nDuration: 1h 19mn\nBit rate mode: Variable\nBit rate: 123 Kbps\nMaximum bit rate: 169 Kbps\nChannel(s): 2 channels\nChannel positions: Front: L R\nSampling rate: 48.0 KHz\nCompression mode: Lossy\nStream size: 70.2 MiB (14%)\nLanguage: English\nEncoded date: UTC 2015-08-23 10:10:43\nTagged date: UTC 2015-08-23 10:58:04 \n\n &lt;a href=&quot;\nhttp://extraimago.com/image/L0j&quot; rel=&quot;nofollow&quot; target=&quot;_NEW&quot;&gt;\nhttp://extraimago.com/image/L0j&lt;/a&gt; &lt;a href=&quot;\nhttp://extraimago.com/image/L0n&quot; rel=&quot;nofollow&quot; target=&quot;_NEW&quot;&gt;\nhttp://extraimago.com/image/L0n&lt;/a&gt; &lt;a href=&quot;\nhttp://extraimago.com/image/L0s&quot; rel=&quot;nofollow&quot; target=&quot;_NEW&quot;&gt;\nhttp://extraimago.com/image/L0s&lt;/a&gt; &lt;a href=&quot;\nhttp://extraimago.com/image/L07&quot; rel=&quot;nofollow&quot; target=&quot;_NEW&quot;&gt;\nhttp://extraimago.com/image/L07&lt;/a&gt;","torrent":{"xt":"urn:btih:c42424e75f5df9001f816efc3cf0b2c53355129a","amp;dn":"Bombshell.Bloodbath.2014.BRRip.x264-MenaceIISociety","amp;tr":["udp%3A%2F%2Ftracker.openbittorrent.com%3A80","udp%3A%2F%2Fopen.demonii.com%3A1337","udp%3A%2F%2Ftracker.coppersurfer.tk%3A6969","udp%3A%2F%2Fexodus.desync.com%3A6969"],"infoHash":"c42424e75f5df9001f816efc3cf0b2c53355129a","infoHashBuffer":{"type":"Buffer","data":[196,36,36,231,95,93,249,0,31,129,110,252,60,240,178,197,51,85,18,154]},"announce":[],"urlList":[]}}